<?xml version="1.0" standalone="no"?><svg xmlns="http://www.w3.org/2000/svg" viewBox="0 0 1440 320"><path fill="#0099ff" fill-opacity="1" d="M0,224L40,202.7C80,181,160,139,240,112C320,85,400,75,480,101.3C560,128,640,192,720,186.7C800,181,880,107,960,96C1040,85,1120,139,1200,181.3C1280,224,1360,256,1400,272L1440,288L1440,320L1400,320C1360,320,1280,320,1200,320C1120,320,1040,320,960,320C880,320,800,320,720,320C640,320,560,320,480,320C400,320,320,320,240,320C160,320,80,320,40,320L0,320Z"></path></svg>