<?xml version="1.0" standalone="no"?><svg xmlns="http://www.w3.org/2000/svg" viewBox="0 0 1440 320"><path fill="#0099ff" fill-opacity="1" d="M0,64L20,85.3C40,107,80,149,120,181.3C160,213,200,235,240,229.3C280,224,320,192,360,176C400,160,440,160,480,165.3C520,171,560,181,600,165.3C640,149,680,107,720,80C760,53,800,43,840,53.3C880,64,920,96,960,106.7C1000,117,1040,107,1080,112C1120,117,1160,139,1200,170.7C1240,203,1280,245,1320,229.3C1360,213,1400,139,1420,101.3L1440,64L1440,320L1420,320C1400,320,1360,320,1320,320C1280,320,1240,320,1200,320C1160,320,1120,320,1080,320C1040,320,1000,320,960,320C920,320,880,320,840,320C800,320,760,320,720,320C680,320,640,320,600,320C560,320,520,320,480,320C440,320,400,320,360,320C320,320,280,320,240,320C200,320,160,320,120,320C80,320,40,320,20,320L0,320Z"></path></svg>